HIERARCHY
ROOT Hips
{
  OFFSET 49.5987 51.6138 -0.118874
  CHANNELS 6 Xposition Yposition Zposition Zrotation Xrotation Yrotation
  JOINT spine
  {
    OFFSET 0 8.30104 0.477351
    CHANNELS 3 Zrotation Xrotation Yrotation
    JOINT spine1
    {
      OFFSET 0 10.4565 0
      CHANNELS 3 Zrotation Xrotation Yrotation
      JOINT spine2
      {
        OFFSET 0 10.0192 0
        CHANNELS 3 Zrotation Xrotation Yrotation
        JOINT Neck
        {
          OFFSET 0 25.7235 1.22641
          CHANNELS 3 Zrotation Xrotation Yrotation
          JOINT Head
          {
            OFFSET 0 7.77175 0
            CHANNELS 3 Zrotation Xrotation Yrotation
            End Site
            {
              OFFSET 0 18.812 -6.20394
            }
          }
        }
        JOINT RightShoulder
        {
          OFFSET -4.2188 10.82 -0.587439
          CHANNELS 3 Zrotation Xrotation Yrotation
          JOINT RightArm
          {
            OFFSET 0 14.1914 0
            CHANNELS 3 Zrotation Xrotation Yrotation
            JOINT RightArmRoll
            {
              OFFSET 0 7.16408 0
              CHANNELS 3 Zrotation Xrotation Yrotation
              JOINT RightForeArm
              {
                OFFSET 0 20.8665 0
                CHANNELS 3 Zrotation Xrotation Yrotation
                JOINT RightForeArmRoll
                {
                  OFFSET 0 8.03921 0
                  CHANNELS 3 Zrotation Xrotation Yrotation
                  JOINT RightHand
                  {
                    OFFSET 0 16.133 0
                    CHANNELS 3 Zrotation Xrotation Yrotation
                    End Site
                    {
                      OFFSET 0 0 0
                    }
                  }
                }
              }
            }
          }
        }
        JOINT LeftShoulder
        {
          OFFSET 4.2188 10.82 -0.587439
          CHANNELS 3 Zrotation Xrotation Yrotation
          JOINT LeftArm
          {
            OFFSET 0 14.1914 0
            CHANNELS 3 Zrotation Xrotation Yrotation
            JOINT LeftArmRoll
            {
              OFFSET 0 7.16408 0
              CHANNELS 3 Zrotation Xrotation Yrotation
              JOINT LeftForeArm
              {
                OFFSET 0 20.8665 0
                CHANNELS 3 Zrotation Xrotation Yrotation
                JOINT LeftForeArmRoll
                {
                  OFFSET 0 8.03921 0
                  CHANNELS 3 Zrotation Xrotation Yrotation
                  JOINT LeftHand
                  {
                    OFFSET 0 16.133 0
                    CHANNELS 3 Zrotation Xrotation Yrotation
                    End Site
                    {
                      OFFSET 0 0 0
                    }
                  }
                }
              }
            }
          }
        }
      }
    }
  }
  JOINT RightUpLeg
  {
    OFFSET -7.35773 -1.34921 -1.13181
    CHANNELS 3 Zrotation Xrotation Yrotation
    JOINT RightUpLegRoll
    {
      OFFSET 0 18.9168 0
      CHANNELS 3 Zrotation Xrotation Yrotation
      JOINT RightLeg
      {
        OFFSET 0 -23.4256 0
        CHANNELS 3 Zrotation Xrotation Yrotation
        JOINT RightLegRoll
        {
          OFFSET 0 23.5023 0
          CHANNELS 3 Zrotation Xrotation Yrotation
          JOINT RightFoot
          {
            OFFSET 0 19.5617 0
            CHANNELS 3 Zrotation Xrotation Yrotation
            JOINT RightToeBase
            {
              OFFSET 0 16.3526 0
              CHANNELS 3 Zrotation Xrotation Yrotation
              End Site
              {
                OFFSET 0.00693125 7.91944 -0.912837
              }
            }
          }
        }
      }
    }
  }
  JOINT LeftUpLeg
  {
    OFFSET 7.35773 -1.34921 -1.13181
    CHANNELS 3 Zrotation Xrotation Yrotation
    JOINT LeftUpLegRoll
    {
      OFFSET 0 18.9169 0
      CHANNELS 3 Zrotation Xrotation Yrotation
      JOINT LeftLeg
      {
        OFFSET 0 23.4255 0
        CHANNELS 3 Zrotation Xrotation Yrotation
        JOINT LeftLegRoll
        {
          OFFSET 0 23.7195 0
          CHANNELS 3 Zrotation Xrotation Yrotation
          JOINT LeftFoot
          {
            OFFSET 0 19.3444 0
            CHANNELS 3 Zrotation Xrotation Yrotation
            JOINT LeftToeBase
            {
              OFFSET 0 16.3526 0
              CHANNELS 3 Zrotation Xrotation Yrotation
              End Site
              {
                OFFSET -0.0310629 7.91943 -0.912837
              }
            }
          }
        }
      }
    }
  }
}
MOTION
Frames: 11
Frame Time: 0.00208333
49.0312 51.9175 -0.659341 -0.252863 -15.0984 -0.951292 0.737155 4.21731 -0.0364641 1.50024 12.434 -0.226444 1.50913 14.0788 -0.252985 -7.15837 6.09514 0.31129 2.43064 -5.06442 -0.828915 57.9551 -3.62422 -2.17593 115.156 39.4768 20.3221 1.30022e-006 3.71163e-006 2.69348e-006 -4.53387 1.3353 1.90787 -8.11838e-006 -3.42696e-007 -3.00604 8.02915 -4.95142 0.69766 -62.0564 -1.60821 1.33919 -106.702 30.215 -11.2822 -6.97809e-006 4.54926e-007 -7.69524e-007 -5.26499 7.16287 1.0971 -1.87024e-005 3.79908e-006 3.00828 -8.02907 -4.95147 -0.697683 123.569 70.1663 63.8594 180 7.01365e-015 178.308 -20.4109 78.427 22.3041 -4.3497e-006 -4.01558e-006 2.26432 -27.9242 70.7763 22.7402 8.12725 25.2413 -3.48045 -119.516 69.1658 -66.4511 4.54188e-006 -4.6773e-006 -1.5511 158.403 -74.1805 153.761 -4.47574e-006 -5.42053e-006 -2.65301 24.9728 71.7891 -23.6417 -8.28183 27.4716 3.55413 
49.0397 51.9191 -0.674928 -0.250752 -15.1897 -0.957783 0.733295 4.22284 -0.0412765 1.49285 12.4452 -0.235415 1.50182 14.09 -0.261857 -7.17333 6.07027 0.317024 2.46385 -5.00248 -0.821326 57.9537 -3.61018 -2.16699 115.206 39.4922 20.308 1.30022e-006 3.71163e-006 2.69348e-006 -4.55363 1.22171 1.90655 -8.11838e-006 -3.42696e-007 -3.006 8.02915 -4.95142 0.69766 -62.0513 -1.65262 1.3643 -106.737 30.1962 -11.2928 -6.97809e-006 4.54926e-007 -7.69524e-007 -5.25649 7.0729 1.09073 -1.87024e-005 3.79908e-006 3.00828 -8.02907 -4.95147 -0.697683 123.768 70.1223 63.6467 180 7.01364e-015 178.306 -20.4452 78.4284 22.3465 -4.3497e-006 -4.01558e-006 2.26284 -27.9153 70.7686 22.7303 8.12725 25.2413 -3.48045 -119.732 69.1255 -66.2265 4.54188e-006 -4.6773e-006 -1.55162 158.396 -74.1784 153.75 -4.47574e-006 -5.42053e-006 -2.65184 24.9724 71.7906 -23.6445 -8.28161 27.4687 3.55371 
49.0445 51.9119 -0.676604 -0.248722 -15.2808 -0.963873 0.729425 4.22837 -0.0461058 1.48545 12.4564 -0.244418 1.4945 14.1012 -0.270761 -7.18638 6.04659 0.322668 2.49403 -4.94211 -0.813893 57.9535 -3.59597 -2.15803 115.253 39.5078 20.2934 1.30022e-006 3.71163e-006 2.69348e-006 -4.57232 1.11234 1.90515 -8.11838e-006 -3.42696e-007 -3.006 8.02915 -4.95142 0.69766 -62.0462 -1.69716 1.3895 -106.772 30.178 -11.3032 -6.97809e-006 4.54926e-007 -7.69524e-007 -5.24803 6.98364 1.08443 -1.87024e-005 3.79908e-006 3.00828 -8.02907 -4.95147 -0.697683 123.966 70.0782 63.4353 180 7.01364e-015 178.305 -20.4794 78.4298 22.3887 -4.3497e-006 -4.01558e-006 2.26133 -27.9058 70.7608 22.7201 8.12725 25.2413 -3.48045 -119.947 69.0855 -66.0031 4.54188e-006 -4.6773e-006 -1.55214 158.388 -74.1765 153.739 -4.47574e-006 -5.42053e-006 -2.65066 24.9713 71.7916 -23.6466 -8.28141 27.466 3.55332 
49.0441 51.9058 -0.678852 -0.246782 -15.3714 -0.969496 0.725559 4.23386 -0.0509442 1.47805 12.4676 -0.25344 1.4872 14.1124 -0.279684 -7.19709 6.02453 0.328253 2.52042 -4.88366 -0.806616 57.9545 -3.58164 -2.14912 115.299 39.5236 20.2784 1.30022e-006 3.71163e-006 2.69348e-006 -4.58991 1.00762 1.90366 -8.11838e-006 -3.42696e-007 -3.00603 8.02915 -4.95142 0.69766 -62.0411 -1.7416 1.41464 -106.807 30.1602 -11.3137 -6.97809e-006 4.54926e-007 -7.69524e-007 -5.23952 6.89526 1.07821 -1.87024e-005 3.79908e-006 3.00828 -8.02907 -4.95147 -0.697683 124.161 70.0341 63.2254 180 7.01363e-015 178.304 -20.5136 78.4316 22.4307 -4.3497e-006 -4.01558e-006 2.2598 -27.8953 70.7527 22.7093 8.12725 25.2413 -3.48045 -120.16 69.0461 -65.7813 4.54188e-006 -4.6773e-006 -1.55266 158.379 -74.175 153.728 -4.47574e-006 -5.42053e-006 -2.64946 24.9694 71.7918 -23.6476 -8.28123 27.4637 3.55298 
49.0493 51.9087 -0.698533 -0.244941 -15.4616 -0.974585 0.721712 4.23928 -0.0557838 1.47069 12.4787 -0.262467 1.47992 14.1234 -0.288612 -7.20501 6.00451 0.333809 2.54225 -4.82747 -0.799498 57.9568 -3.56724 -2.14027 115.343 39.5395 20.2631 1.30022e-006 3.71163e-006 2.69348e-006 -4.60637 0.907999 1.90212 -8.11838e-006 -3.42696e-007 -3.0061 8.02915 -4.95142 0.69766 -62.0361 -1.78568 1.43959 -106.841 30.1425 -11.3244 -6.97809e-006 4.54926e-007 -7.69524e-007 -5.23086 6.80794 1.07206 -1.87024e-005 3.79908e-006 3.00828 -8.02907 -4.95147 -0.697683 124.355 69.99 63.017 180 7.01363e-015 178.302 -20.5482 78.4337 22.4728 -4.3497e-006 -4.01558e-006 2.25824 -27.8834 70.7441 22.6978 8.12725 25.2413 -3.48045 -120.371 69.0073 -65.5614 4.54188e-006 -4.6773e-006 -1.5532 158.371 -74.174 153.717 -4.47574e-006 -5.42053e-006 -2.64823 24.9663 71.7908 -23.6469 -8.28109 27.4618 3.55271 
49.0518 51.9074 -0.701648 -0.243208 -15.5511 -0.979075 0.717897 4.24459 -0.0606168 1.4634 12.4895 -0.271484 1.47272 14.1343 -0.297532 -7.20971 5.98697 0.339365 2.55876 -4.77387 -0.792538 57.9606 -3.55282 -2.13153 115.384 39.5555 20.2478 1.30022e-006 3.71163e-006 2.69348e-006 -4.62165 0.813905 1.90054 -8.11838e-006 -3.42696e-007 -3.00623 8.02915 -4.95142 0.69766 -62.0312 -1.82918 1.46421 -106.874 30.1247 -11.3357 -6.97809e-006 4.54926e-007 -7.69524e-007 -5.22196 6.72187 1.066 -1.87024e-005 3.79908e-006 3.00828 -8.02907 -4.95147 -0.697683 124.547 69.9462 62.8105 180 7.01363e-015 178.301 -20.5832 78.4364 22.515 -4.3497e-006 -4.01558e-006 2.25663 -27.8696 70.7348 22.6852 8.12725 25.2413 -3.48045 -120.579 68.9694 -65.3435 4.54188e-006 -4.6773e-006 -1.55376 158.362 -74.1738 153.705 -4.47574e-006 -5.42053e-006 -2.64699 24.9615 71.7883 -23.6442 -8.28099 27.4605 3.55254 
49.0468 51.9174 -0.712061 -0.24159 -15.6399 -0.982898 0.714128 4.24975 -0.0654354 1.45619 12.5 -0.280479 1.4656 14.1448 -0.306431 -7.21075 5.97232 0.344951 2.56918 -4.72322 -0.785737 57.9657 -3.53841 -2.12293 115.423 39.5714 20.2326 1.30022e-006 3.71163e-006 2.69348e-006 -4.63573 0.725778 1.89893 -8.11838e-006 -3.42696e-007 -3.00642 8.02915 -4.95142 0.69766 -62.0264 -1.87184 1.48838 -106.908 30.1066 -11.3477 -6.97809e-006 4.54926e-007 -7.69524e-007 -5.21273 6.63722 1.06003 -1.87024e-005 3.79908e-006 3.00828 -8.02907 -4.95147 -0.697683 124.736 69.9026 62.6058 180 7.01362e-015 178.3 -20.619 78.4398 22.5575 -4.3497e-006 -4.01558e-006 2.25497 -27.8537 70.7247 22.6713 8.12725 25.2413 -3.48045 -120.786 68.9325 -65.1281 4.54188e-006 -4.6773e-006 -1.55436 158.352 -74.1744 153.692 -4.47574e-006 -5.42053e-006 -2.64573 24.9548 71.7841 -23.6389 -8.28094 27.4598 3.55247 
49.053 51.9154 -0.717029 -0.240094 -15.7278 -0.985989 0.710418 4.25473 -0.0702316 1.44911 12.5101 -0.289437 1.4586 14.1549 -0.315295 -7.2077 5.96098 0.350597 2.57276 -4.67585 -0.779096 57.9725 -3.52407 -2.1145 115.459 39.5873 20.2177 1.30022e-006 3.71163e-006 2.69348e-006 -4.64856 0.644056 1.8973 -8.11838e-006 -3.42696e-007 -3.00667 8.02915 -4.95142 0.69766 -62.0218 -1.91342 1.51195 -106.94 30.0881 -11.3608 -6.97809e-006 4.54926e-007 -7.69524e-007 -5.20308 6.55418 1.05415 -1.87024e-005 3.79908e-006 3.00828 -8.02907 -4.95147 -0.697683 124.923 69.8595 62.4032 180 7.01362e-015 178.299 -20.6556 78.4441 22.6004 -4.3497e-006 -4.01558e-006 2.25326 -27.8352 70.7135 22.6558 8.12725 25.2413 -3.48045 -120.99 68.8969 -64.9153 4.54188e-006 -4.6773e-006 -1.55499 158.341 -74.176 153.678 -4.47574e-006 -5.42053e-006 -2.64443 24.9459 71.7777 -23.6307 -8.28096 27.4601 3.55255 
49.0695 51.9001 -0.7263 -0.238545 -15.8148 -0.988287 0.706701 4.25953 -0.0751012 1.44201 12.5199 -0.298539 1.45159 14.1647 -0.324303 -7.20001 5.95311 0.356324 2.5686 -4.63232 -0.7726 57.981 -3.50951 -2.1061 115.492 39.6039 20.2031 1.30022e-006 3.71163e-006 2.69348e-006 -4.66069 0.568807 1.89571 -8.11838e-006 -3.42696e-007 -3.00698 8.02915 -4.95142 0.69766 -62.0172 -1.95488 1.53546 -106.973 30.0696 -11.3743 -6.97809e-006 4.54926e-007 -7.69524e-007 -5.1931 6.47208 1.04834 -1.87024e-005 3.79908e-006 3.00828 -8.02907 -4.95147 -0.697683 125.106 69.8166 62.2029 180 7.01362e-015 178.299 -20.693 78.4492 22.6437 -4.3497e-006 -4.01558e-006 2.25147 -27.8143 70.7015 22.6388 8.12725 25.2413 -3.48045 -121.191 68.8626 -64.705 4.54188e-006 -4.6773e-006 -1.55566 158.33 -74.1786 153.663 -4.47574e-006 -5.42053e-006 -2.64311 24.9348 71.7693 -23.6197 -8.28103 27.4611 3.55274 
49.0697 51.9011 -0.73115 -0.236797 -15.9011 -0.989827 0.70291 4.26423 -0.0801235 1.43478 12.5296 -0.307932 1.44445 14.1744 -0.3336 -7.18778 5.94831 0.36211 2.55694 -4.59266 -0.766236 57.9915 -3.49446 -2.09754 115.523 39.6219 20.1884 1.30022e-006 3.71163e-006 2.69348e-006 -4.67254 0.499579 1.89416 -8.11838e-006 -3.42696e-007 -3.00732 8.02915 -4.95142 0.69766 -62.0125 -1.99718 1.55945 -107.005 30.0519 -11.3878 -6.97809e-006 4.54926e-007 -7.69524e-007 -5.18294 6.39026 1.04257 -1.87024e-005 3.79908e-006 3.00828 -8.02907 -4.95147 -0.697683 125.286 69.774 62.0053 180 7.01361e-015 178.298 -20.7307 78.4546 22.687 -4.3497e-006 -4.01558e-006 2.24963 -27.7916 70.6888 22.6207 8.12725 25.2413 -3.48045 -121.39 68.8295 -64.4966 4.54188e-006 -4.6773e-006 -1.55634 158.319 -74.1818 153.649 -4.47574e-006 -5.42053e-006 -2.64174 24.9221 71.7595 -23.6066 -8.28115 27.4627 3.55304 
49.0833 51.903 -0.744691 -0.23491 -15.9867 -0.990677 0.699062 4.26882 -0.0852661 1.42744 12.5392 -0.317554 1.43721 14.184 -0.343126 -7.17155 5.94622 0.367926 2.53869 -4.55638 -0.76001 58.0037 -3.479 -2.08889 115.551 39.6411 20.1737 1.30022e-006 3.71163e-006 2.69348e-006 -4.68393 0.436021 1.89263 -8.11838e-006 -3.42696e-007 -3.0077 8.02915 -4.95142 0.69766 -62.0077 -2.04013 1.58382 -107.038 30.0351 -11.4013 -6.97809e-006 4.54926e-007 -7.69524e-007 -5.17264 6.30883 1.03685 -1.87024e-005 3.79908e-006 3.00828 -8.02907 -4.95147 -0.697683 125.463 69.7316 61.81 180 7.01361e-015 178.298 -20.7687 78.4603 22.7303 -4.3497e-006 -4.01558e-006 2.24773 -27.7673 70.6757 22.6017 8.12725 25.2413 -3.48045 -121.588 68.7975 -64.29 4.54188e-006 -4.6773e-006 -1.55704 158.307 -74.1857 153.634 -4.47574e-006 -5.42053e-006 -2.64034 24.908 71.7483 -23.5917 -8.28131 27.4648 3.55341 
